<?xml version="1.0" encoding="UTF-8" standalone="no"?>
<!DOCTYPE svg PUBLIC "-//W3C//DTD SVG 1.1//EN" "http://www.w3.org/Graphics/SVG/1.1/DTD/svg11.dtd">
<svg width="100%" height="100%" viewBox="0 0 67 66" version="1.1" xmlns="http://www.w3.org/2000/svg" xmlns:xlink="http://www.w3.org/1999/xlink" xml:space="preserve" xmlns:serif="http://www.serif.com/" style="fill-rule:evenodd;clip-rule:evenodd;stroke-linejoin:round;stroke-miterlimit:2;">
    <g id="Background">
        <path d="M19.5,62.034C9.305,61.799 9.297,61.994 8.428,61.819C5.569,61.244 4.953,58.799 4.857,58.417C4.637,57.544 4.666,57.528 4.666,16.5C4.666,9.356 4.113,5.761 7.527,4.574C8.752,4.149 8.789,4.192 48.5,4.192C57.758,4.192 60.975,3.566 62.125,7.6C62.336,8.34 62.344,8.356 62.344,50.5C62.344,56.824 63.197,61.44 57.473,62.016C57.337,62.03 51.471,61.938 51.395,61.921C49.643,61.531 50.016,59.651 50.06,59.429C50.296,58.239 50.382,58.167 51.546,57.83C51.887,57.731 56.836,58.003 57.473,57.46C58.335,56.726 58.198,56.292 58.198,45.5C58.197,28.041 58.277,27.904 57.683,27.314C56.72,26.358 52.539,27.004 51.444,26.758C49.848,26.401 50.023,24.665 50.044,24.45C50.17,23.204 50.339,23.158 51.543,22.818C51.621,22.796 55.429,22.791 55.506,22.79C57.047,22.772 58.124,22.634 58.193,20.486C58.197,20.356 58.204,10.731 58.187,10.514C58.17,10.28 58.169,8.514 56.543,8.233C55.836,8.111 34.421,8.198 32.498,8.206C28.767,8.221 29.35,9.727 29.344,12.5C29.326,21.073 29.274,21.597 29.821,22.205C30.57,23.039 30.755,22.645 35.483,22.795C38.292,22.885 37.755,25.57 37.178,26.207C36.372,27.098 36.165,26.669 31.519,26.819C31.358,26.824 30.142,26.864 29.662,27.597C29.084,28.479 29.444,34.39 29.316,35.477C29.022,37.993 26.524,37.066 26.269,36.971C24.96,36.485 25.203,35.994 25.195,24.501C25.183,9.491 25.557,8.592 23.544,8.237C22.512,8.055 12.458,8.193 11.494,8.206C9.815,8.229 9.454,8.015 8.874,9.585C8.797,9.796 8.806,9.805 8.806,43.5C8.806,56.585 8.5,57.435 10.458,57.77C11.237,57.903 21.541,57.802 22.505,57.793C23.82,57.78 25.13,57.727 25.187,55.485C25.283,51.764 25.183,51.786 25.207,51.465C25.379,49.142 27.907,49.08 28.876,50.173C29.597,50.987 29.289,54.194 29.34,55.51C29.41,57.354 30.205,57.685 31.474,57.788C35.854,58.147 35.623,56.28 35.773,55.554C35.873,55.07 36.576,51.674 37.872,49.748C41.315,44.632 46.596,43.663 47.5,43.497C47.624,43.474 50.042,42.773 49.962,45.507C49.874,48.518 47.278,47.132 44.335,49.248C36.836,54.638 41.567,60.789 38.639,61.825C38.171,61.99 38.164,62.032 19.5,62.034Z" style="fill:rgb(10,51,70);"/>
    </g>
</svg>
