<?xml version="1.0" encoding="UTF-8" standalone="no"?>
<!DOCTYPE svg PUBLIC "-//W3C//DTD SVG 1.1//EN" "http://www.w3.org/Graphics/SVG/1.1/DTD/svg11.dtd">
<svg width="100%" height="100%" viewBox="0 0 55 68" version="1.1" xmlns="http://www.w3.org/2000/svg" xmlns:xlink="http://www.w3.org/1999/xlink" xml:space="preserve" xmlns:serif="http://www.serif.com/" style="fill-rule:evenodd;clip-rule:evenodd;stroke-linejoin:round;stroke-miterlimit:2;">
    <path d="M0.732,26.768C0.732,11.994 12.726,-0 27.5,-0C42.274,-0 54.268,11.994 54.268,26.768L54.266,27.054L54.266,27.104C54.255,27.363 54.195,28.623 54.035,30.314C53.717,33.67 53.001,38.724 51.479,41.039C50.502,42.524 47.353,48.317 42.735,53.514C36.078,61.006 27.5,68.286 27.5,68.286L27.5,68C27.5,68 20.517,62.164 14.491,55.422C9.09,49.38 4.649,42.466 3.521,40.752C2.136,38.648 1.42,34.276 1.062,30.978C0.803,28.592 0.732,26.768 0.732,26.768ZM27.5,19.88C23.513,19.88 20.276,23.117 20.276,27.104C20.276,31.09 23.513,34.327 27.5,34.327C31.487,34.327 34.724,31.09 34.724,27.104C34.724,23.117 31.487,19.88 27.5,19.88Z" style="fill:rgb(10,51,70);"/>
</svg>
