<?xml version="1.0" encoding="UTF-8" standalone="no"?>
<!DOCTYPE svg PUBLIC "-//W3C//DTD SVG 1.1//EN" "http://www.w3.org/Graphics/SVG/1.1/DTD/svg11.dtd">
<svg width="100%" height="100%" viewBox="0 0 69 68" version="1.1" xmlns="http://www.w3.org/2000/svg" xmlns:xlink="http://www.w3.org/1999/xlink" xml:space="preserve" xmlns:serif="http://www.serif.com/" style="fill-rule:evenodd;clip-rule:evenodd;stroke-linejoin:round;stroke-miterlimit:2;">
    <path d="M66.073,50.5C66.074,57.741 66.294,60.147 65.134,61.066C63.442,62.408 60.796,60.218 54.438,56.607C49.9,54.029 49.566,53.273 46.293,55.139C35.112,61.512 35.067,61.809 33.501,61.494C32.53,61.299 27.67,58.328 26.432,57.616C20.214,54.038 19.765,53.211 16.757,54.947C13.101,57.055 9.96,58.927 9.371,59.278C6.856,60.777 2.312,64.031 2.27,57.501C2.249,54.3 2.029,19.831 2.362,17.484C2.759,14.675 4.429,14.555 10.676,10.812C17.769,6.563 18.714,6.594 19.495,6.62C22.408,6.716 32.168,14.258 34.454,14.038C36.615,13.83 46.255,6.392 49.488,6.627C50.731,6.717 50.724,6.862 63.247,13.943C65.384,15.151 65.698,16.128 65.785,16.397C66.098,17.37 66.079,17.397 66.073,50.5ZM61.857,47.499L61.857,30.5C61.857,19.783 62.007,18.852 61.09,17.924C60.782,17.612 52.6,12.79 52.45,12.757C51.204,12.488 51.129,14.272 51.122,14.444C51.014,17.006 51.125,16.993 51.157,46.5C51.16,49.834 51.535,49.964 54.42,51.636C60.204,54.987 60.204,55.596 61.263,55.057C62.113,54.625 61.868,52.733 61.857,47.499ZM46.941,25.5C46.941,15.302 46.998,15.308 46.958,14.423C46.95,14.249 46.863,12.375 45.572,12.755C45.243,12.851 41.707,15.078 41.375,15.287C37.659,17.627 36.301,17.118 36.283,21.499C36.273,24.062 36.16,52.02 36.228,53.533C36.285,54.808 36.192,55.182 37.47,55.257C37.679,55.269 43.525,51.758 43.618,51.7C45.573,50.469 46.521,50.297 46.884,48.567C47.009,47.974 46.941,47.989 46.941,25.5ZM32.071,39.5C32.071,20.099 32.091,20.092 31.955,19.417C31.469,16.994 28.17,16.288 23.608,13.231C22.515,12.498 22.203,12.373 21.479,13.49C21.355,13.681 21.411,15.339 21.416,15.499C21.466,16.962 21.418,46.422 21.446,47.501C21.523,50.546 23.344,50.77 28.331,53.791C29.498,54.498 30.744,55.801 31.796,54.759C32.298,54.261 32.111,54.178 32.107,53.478C32.061,46.689 32.071,46.711 32.071,39.5ZM17.152,46.5L17.157,18.5C17.158,13.879 17.352,13.755 16.777,13.186C16.211,12.627 16.11,12.76 15.38,13.066C15.197,13.142 8.53,17.092 8.329,17.234C6.166,18.758 6.609,20.032 6.616,22.5C6.7,51.026 6.5,51.017 6.546,53.496C6.567,54.658 6.372,55.008 7.51,55.217C7.571,55.228 7.653,55.371 14.43,51.38C17.062,49.831 17.089,49.539 17.152,46.5Z" style="fill:rgb(0,51,73);"/>
</svg>
